<svg xmlns="http://www.w3.org/2000/svg" viewBox="0 0 46 46" shape-rendering="crispEdges" role="img" aria-label="Bit, the Arble mascot"><title>Bit &#8212; the Arble mascot (thinking)</title><rect x="14" y="3" width="3" height="1" fill="#5A9420"/><rect x="29" y="3" width="3" height="1" fill="#5A9420"/><rect x="13" y="4" width="1" height="1" fill="#5A9420"/><rect x="14" y="4" width="3" height="1" fill="#A8DC4A"/><rect x="17" y="4" width="2" height="1" fill="#5A9420"/><rect x="27" y="4" width="2" height="1" fill="#5A9420"/><rect x="29" y="4" width="3" height="1" fill="#A8DC4A"/><rect x="32" y="4" width="1" height="1" fill="#5A9420"/><rect x="12" y="5" width="1" height="1" fill="#5A9420"/><rect x="13" y="5" width="6" height="1" fill="#A8DC4A"/><rect x="19" y="5" width="1" height="1" fill="#5A9420"/><rect x="26" y="5" width="1" height="1" fill="#5A9420"/><rect x="27" y="5" width="6" height="1" fill="#A8DC4A"/><rect x="33" y="5" width="1" height="1" fill="#5A9420"/><rect x="11" y="6" width="1" height="1" fill="#5A9420"/><rect x="12" y="6" width="5" height="1" fill="#A8DC4A"/><rect x="17" y="6" width="3" height="1" fill="#7FC42E"/><rect x="20" y="6" width="1" height="1" fill="#5A9420"/><rect x="25" y="6" width="1" height="1" fill="#5A9420"/><rect x="26" y="6" width="3" height="1" fill="#7FC42E"/><rect x="29" y="6" width="5" height="1" fill="#A8DC4A"/><rect x="34" y="6" width="1" height="1" fill="#5A9420"/><rect x="12" y="7" width="1" height="1" fill="#5A9420"/><rect x="13" y="7" width="2" height="1" fill="#A8DC4A"/><rect x="15" y="7" width="5" height="1" fill="#7FC42E"/><rect x="20" y="7" width="1" height="1" fill="#5A9420"/><rect x="25" y="7" width="1" height="1" fill="#5A9420"/><rect x="26" y="7" width="5" height="1" fill="#7FC42E"/><rect x="31" y="7" width="2" height="1" fill="#A8DC4A"/><rect x="33" y="7" width="1" height="1" fill="#5A9420"/><rect x="13" y="8" width="2" height="1" fill="#5A9420"/><rect x="15" y="8" width="4" height="1" fill="#7FC42E"/><rect x="19" y="8" width="1" height="1" fill="#5A9420"/><rect x="26" y="8" width="1" height="1" fill="#5A9420"/><rect x="27" y="8" width="4" height="1" fill="#7FC42E"/><rect x="31" y="8" width="2" height="1" fill="#5A9420"/><rect x="15" y="9" width="4" height="1" fill="#5A9420"/><rect x="20" y="9" width="1" height="1" fill="#A8912E"/><rect x="22" y="9" width="1" height="1" fill="#A8912E"/><rect x="23" y="9" width="1" height="1" fill="#7A6620"/><rect x="25" y="9" width="1" height="1" fill="#A8912E"/><rect x="27" y="9" width="4" height="1" fill="#5A9420"/><rect x="21" y="10" width="2" height="1" fill="#A8912E"/><rect x="23" y="10" width="1" height="1" fill="#7A6620"/><rect x="24" y="10" width="1" height="1" fill="#A8912E"/><rect x="22" y="11" width="2" height="1" fill="#A8912E"/><rect x="22" y="12" width="1" height="1" fill="#A8912E"/><rect x="23" y="12" width="1" height="1" fill="#7A6620"/><rect x="22" y="13" width="1" height="1" fill="#A8912E"/><rect x="23" y="13" width="1" height="1" fill="#7A6620"/><rect x="22" y="14" width="1" height="1" fill="#A8912E"/><rect x="23" y="14" width="1" height="1" fill="#7A6620"/><rect x="22" y="15" width="1" height="1" fill="#A8912E"/><rect x="23" y="15" width="1" height="1" fill="#7A6620"/><rect x="22" y="16" width="1" height="1" fill="#A8912E"/><rect x="23" y="16" width="1" height="1" fill="#7A6620"/><rect x="22" y="17" width="1" height="1" fill="#A8912E"/><rect x="23" y="17" width="1" height="1" fill="#7A6620"/><rect x="13" y="18" width="20" height="1" fill="#4A3F1C"/><rect x="12" y="19" width="2" height="1" fill="#4A3F1C"/><rect x="14" y="19" width="18" height="1" fill="#E3CE77"/><rect x="32" y="19" width="2" height="1" fill="#4A3F1C"/><rect x="11" y="20" width="1" height="1" fill="#4A3F1C"/><rect x="12" y="20" width="22" height="1" fill="#E3CE77"/><rect x="34" y="20" width="1" height="1" fill="#4A3F1C"/><rect x="10" y="21" width="2" height="1" fill="#4A3F1C"/><rect x="12" y="21" width="3" height="1" fill="#E3CE77"/><rect x="15" y="21" width="16" height="1" fill="#C9A94F"/><rect x="31" y="21" width="3" height="1" fill="#E3CE77"/><rect x="34" y="21" width="2" height="1" fill="#4A3F1C"/><rect x="10" y="22" width="1" height="1" fill="#4A3F1C"/><rect x="11" y="22" width="3" height="1" fill="#E3CE77"/><rect x="14" y="22" width="2" height="1" fill="#C9A94F"/><rect x="16" y="22" width="14" height="1" fill="#F5EDB8"/><rect x="30" y="22" width="2" height="1" fill="#C9A94F"/><rect x="32" y="22" width="3" height="1" fill="#E3CE77"/><rect x="35" y="22" width="1" height="1" fill="#4A3F1C"/><rect x="10" y="23" width="1" height="1" fill="#4A3F1C"/><rect x="11" y="23" width="2" height="1" fill="#E3CE77"/><rect x="13" y="23" width="2" height="1" fill="#C9A94F"/><rect x="15" y="23" width="16" height="1" fill="#F5EDB8"/><rect x="31" y="23" width="2" height="1" fill="#C9A94F"/><rect x="33" y="23" width="2" height="1" fill="#E3CE77"/><rect x="35" y="23" width="1" height="1" fill="#4A3F1C"/><rect x="10" y="24" width="1" height="1" fill="#4A3F1C"/><rect x="11" y="24" width="2" height="1" fill="#E3CE77"/><rect x="13" y="24" width="1" height="1" fill="#C9A94F"/><rect x="14" y="24" width="18" height="1" fill="#F5EDB8"/><rect x="32" y="24" width="1" height="1" fill="#C9A94F"/><rect x="33" y="24" width="2" height="1" fill="#E3CE77"/><rect x="35" y="24" width="1" height="1" fill="#4A3F1C"/><rect x="10" y="25" width="1" height="1" fill="#4A3F1C"/><rect x="11" y="25" width="2" height="1" fill="#E3CE77"/><rect x="13" y="25" width="1" height="1" fill="#C9A94F"/><rect x="14" y="25" width="18" height="1" fill="#F5EDB8"/><rect x="32" y="25" width="1" height="1" fill="#C9A94F"/><rect x="33" y="25" width="2" height="1" fill="#E3CE77"/><rect x="35" y="25" width="1" height="1" fill="#4A3F1C"/><rect x="10" y="26" width="1" height="1" fill="#4A3F1C"/><rect x="11" y="26" width="2" height="1" fill="#E3CE77"/><rect x="13" y="26" width="1" height="1" fill="#C9A94F"/><rect x="14" y="26" width="18" height="1" fill="#F5EDB8"/><rect x="32" y="26" width="1" height="1" fill="#C9A94F"/><rect x="33" y="26" width="2" height="1" fill="#E3CE77"/><rect x="35" y="26" width="1" height="1" fill="#4A3F1C"/><rect x="10" y="27" width="1" height="1" fill="#4A3F1C"/><rect x="11" y="27" width="2" height="1" fill="#E3CE77"/><rect x="13" y="27" width="1" height="1" fill="#C9A94F"/><rect x="14" y="27" width="18" height="1" fill="#F5EDB8"/><rect x="32" y="27" width="1" height="1" fill="#C9A94F"/><rect x="33" y="27" width="2" height="1" fill="#E3CE77"/><rect x="35" y="27" width="1" height="1" fill="#4A3F1C"/><rect x="10" y="28" width="1" height="1" fill="#4A3F1C"/><rect x="11" y="28" width="2" height="1" fill="#E3CE77"/><rect x="13" y="28" width="1" height="1" fill="#C9A94F"/><rect x="14" y="28" width="18" height="1" fill="#F5EDB8"/><rect x="32" y="28" width="1" height="1" fill="#C9A94F"/><rect x="33" y="28" width="2" height="1" fill="#E3CE77"/><rect x="35" y="28" width="1" height="1" fill="#4A3F1C"/><rect x="10" y="29" width="1" height="1" fill="#4A3F1C"/><rect x="11" y="29" width="2" height="1" fill="#E3CE77"/><rect x="13" y="29" width="2" height="1" fill="#C9A94F"/><rect x="15" y="29" width="16" height="1" fill="#F5EDB8"/><rect x="31" y="29" width="2" height="1" fill="#C9A94F"/><rect x="33" y="29" width="2" height="1" fill="#E3CE77"/><rect x="35" y="29" width="1" height="1" fill="#4A3F1C"/><rect x="10" y="30" width="1" height="1" fill="#4A3F1C"/><rect x="11" y="30" width="3" height="1" fill="#E3CE77"/><rect x="14" y="30" width="2" height="1" fill="#C9A94F"/><rect x="16" y="30" width="14" height="1" fill="#F5EDB8"/><rect x="30" y="30" width="2" height="1" fill="#C9A94F"/><rect x="32" y="30" width="3" height="1" fill="#E3CE77"/><rect x="35" y="30" width="1" height="1" fill="#4A3F1C"/><rect x="10" y="31" width="2" height="1" fill="#4A3F1C"/><rect x="12" y="31" width="3" height="1" fill="#E3CE77"/><rect x="15" y="31" width="16" height="1" fill="#C9A94F"/><rect x="31" y="31" width="3" height="1" fill="#E3CE77"/><rect x="34" y="31" width="2" height="1" fill="#4A3F1C"/><rect x="11" y="32" width="1" height="1" fill="#4A3F1C"/><rect x="12" y="32" width="22" height="1" fill="#E3CE77"/><rect x="34" y="32" width="1" height="1" fill="#4A3F1C"/><rect x="12" y="33" width="2" height="1" fill="#4A3F1C"/><rect x="14" y="33" width="18" height="1" fill="#E3CE77"/><rect x="32" y="33" width="2" height="1" fill="#4A3F1C"/><rect x="13" y="34" width="20" height="1" fill="#4A3F1C"/><rect x="18" y="35" width="2" height="1" fill="#4A3F1C"/><rect x="20" y="35" width="5" height="1" fill="#E0CE7A"/><rect x="25" y="35" width="1" height="1" fill="#B39C42"/><rect x="26" y="35" width="2" height="1" fill="#4A3F1C"/><rect x="15" y="36" width="4" height="1" fill="#4A3F1C"/><rect x="19" y="36" width="1" height="1" fill="#E0CE7A"/><rect x="20" y="36" width="5" height="1" fill="#EFE3A0"/><rect x="25" y="36" width="1" height="1" fill="#E0CE7A"/><rect x="26" y="36" width="1" height="1" fill="#B39C42"/><rect x="27" y="36" width="4" height="1" fill="#4A3F1C"/><rect x="14" y="37" width="1" height="1" fill="#4A3F1C"/><rect x="15" y="37" width="3" height="1" fill="#E0CE7A"/><rect x="18" y="37" width="1" height="1" fill="#B39C42"/><rect x="19" y="37" width="1" height="1" fill="#4A3F1C"/><rect x="20" y="37" width="6" height="1" fill="#EFE3A0"/><rect x="26" y="37" width="1" height="1" fill="#4A3F1C"/><rect x="27" y="37" width="3" height="1" fill="#E0CE7A"/><rect x="30" y="37" width="1" height="1" fill="#B39C42"/><rect x="31" y="37" width="1" height="1" fill="#4A3F1C"/><rect x="12" y="38" width="2" height="1" fill="#4A3F1C"/><rect x="14" y="38" width="1" height="1" fill="#E0CE7A"/><rect x="15" y="38" width="3" height="1" fill="#EFE3A0"/><rect x="18" y="38" width="1" height="1" fill="#E0CE7A"/><rect x="19" y="38" width="1" height="1" fill="#B39C42"/><rect x="20" y="38" width="1" height="1" fill="#4A3F1C"/><rect x="21" y="38" width="4" height="1" fill="#EFE3A0"/><rect x="25" y="38" width="1" height="1" fill="#4A3F1C"/><rect x="26" y="38" width="1" height="1" fill="#E0CE7A"/><rect x="27" y="38" width="3" height="1" fill="#EFE3A0"/><rect x="30" y="38" width="1" height="1" fill="#E0CE7A"/><rect x="31" y="38" width="1" height="1" fill="#B39C42"/><rect x="32" y="38" width="2" height="1" fill="#4A3F1C"/><rect x="11" y="39" width="1" height="1" fill="#4A3F1C"/><rect x="12" y="39" width="1" height="1" fill="#E0CE7A"/><rect x="13" y="39" width="1" height="1" fill="#4A3F1C"/><rect x="14" y="39" width="1" height="1" fill="#B39C42"/><rect x="15" y="39" width="3" height="1" fill="#E0CE7A"/><rect x="18" y="39" width="2" height="1" fill="#B39C42"/><rect x="20" y="39" width="2" height="1" fill="#4A3F1C"/><rect x="22" y="39" width="2" height="1" fill="#EFE3A0"/><rect x="24" y="39" width="2" height="1" fill="#4A3F1C"/><rect x="26" y="39" width="1" height="1" fill="#B39C42"/><rect x="27" y="39" width="3" height="1" fill="#E0CE7A"/><rect x="30" y="39" width="2" height="1" fill="#B39C42"/><rect x="32" y="39" width="1" height="1" fill="#4A3F1C"/><rect x="33" y="39" width="1" height="1" fill="#B39C42"/><rect x="34" y="39" width="1" height="1" fill="#4A3F1C"/><rect x="10" y="40" width="1" height="1" fill="#4A3F1C"/><rect x="11" y="40" width="1" height="1" fill="#E0CE7A"/><rect x="12" y="40" width="2" height="1" fill="#EFE3A0"/><rect x="14" y="40" width="1" height="1" fill="#4A3F1C"/><rect x="15" y="40" width="4" height="1" fill="#B39C42"/><rect x="19" y="40" width="1" height="1" fill="#4A3F1C"/><rect x="20" y="40" width="1" height="1" fill="#E0CE7A"/><rect x="21" y="40" width="1" height="1" fill="#B39C42"/><rect x="22" y="40" width="2" height="1" fill="#4A3F1C"/><rect x="24" y="40" width="1" height="1" fill="#E0CE7A"/><rect x="25" y="40" width="1" height="1" fill="#EFE3A0"/><rect x="26" y="40" width="1" height="1" fill="#4A3F1C"/><rect x="27" y="40" width="4" height="1" fill="#B39C42"/><rect x="31" y="40" width="1" height="1" fill="#4A3F1C"/><rect x="32" y="40" width="1" height="1" fill="#EFE3A0"/><rect x="33" y="40" width="1" height="1" fill="#E0CE7A"/><rect x="34" y="40" width="1" height="1" fill="#B39C42"/><rect x="35" y="40" width="1" height="1" fill="#4A3F1C"/><rect x="10" y="41" width="1" height="1" fill="#4A3F1C"/><rect x="11" y="41" width="1" height="1" fill="#E0CE7A"/><rect x="12" y="41" width="3" height="1" fill="#EFE3A0"/><rect x="15" y="41" width="4" height="1" fill="#4A3F1C"/><rect x="19" y="41" width="1" height="1" fill="#EFE3A0"/><rect x="20" y="41" width="1" height="1" fill="#E0CE7A"/><rect x="21" y="41" width="1" height="1" fill="#B39C42"/><rect x="22" y="41" width="2" height="1" fill="#4A3F1C"/><rect x="24" y="41" width="1" height="1" fill="#E0CE7A"/><rect x="25" y="41" width="2" height="1" fill="#EFE3A0"/><rect x="27" y="41" width="4" height="1" fill="#4A3F1C"/><rect x="31" y="41" width="2" height="1" fill="#EFE3A0"/><rect x="33" y="41" width="1" height="1" fill="#E0CE7A"/><rect x="34" y="41" width="1" height="1" fill="#B39C42"/><rect x="35" y="41" width="1" height="1" fill="#4A3F1C"/><rect x="10" y="42" width="1" height="1" fill="#4A3F1C"/><rect x="11" y="42" width="1" height="1" fill="#B39C42"/><rect x="12" y="42" width="8" height="1" fill="#E0CE7A"/><rect x="20" y="42" width="2" height="1" fill="#B39C42"/><rect x="22" y="42" width="2" height="1" fill="#4A3F1C"/><rect x="24" y="42" width="1" height="1" fill="#B39C42"/><rect x="25" y="42" width="8" height="1" fill="#E0CE7A"/><rect x="33" y="42" width="2" height="1" fill="#B39C42"/><rect x="35" y="42" width="1" height="1" fill="#4A3F1C"/><rect x="11" y="43" width="1" height="1" fill="#4A3F1C"/><rect x="12" y="43" width="9" height="1" fill="#B39C42"/><rect x="21" y="43" width="1" height="1" fill="#4A3F1C"/><rect x="24" y="43" width="1" height="1" fill="#4A3F1C"/><rect x="25" y="43" width="9" height="1" fill="#B39C42"/><rect x="34" y="43" width="1" height="1" fill="#4A3F1C"/><rect x="12" y="44" width="9" height="1" fill="#4A3F1C"/><rect x="25" y="44" width="9" height="1" fill="#4A3F1C"/><rect x="18" y="23" width="3" height="3" fill="#1A1A1A"/><rect x="25" y="23" width="3" height="3" fill="#1A1A1A"/><rect x="20" y="23" width="1" height="1" fill="#FFFFFF"/><rect x="27" y="23" width="1" height="1" fill="#FFFFFF"/><rect x="18" y="25" width="3" height="1" fill="#F5EDB8"/><rect x="25" y="25" width="3" height="1" fill="#F5EDB8"/><rect x="15" y="27" width="3" height="2" fill="#F0917A"/><rect x="27" y="27" width="3" height="2" fill="#F0917A"/><rect x="20" y="28" width="1" height="1" fill="#1A1A1A"/><rect x="22" y="28" width="1" height="1" fill="#1A1A1A"/><rect x="24" y="28" width="1" height="1" fill="#1A1A1A"/><rect x="7" y="6" width="3" height="1" fill="#C9A94F"/><rect x="10" y="7" width="1" height="1" fill="#C9A94F"/><rect x="9" y="8" width="1" height="1" fill="#C9A94F"/><rect x="8" y="9" width="1" height="1" fill="#C9A94F"/><rect x="8" y="11" width="1" height="1" fill="#C9A94F"/></svg>
